<svg xmlns="http://www.w3.org/2000/svg" xmlns:xlink="http://www.w3.org/1999/xlink" version="1.1" x="0px" y="0px" viewBox="0 0 100 125" enable-background="new 0 0 100 100" xml:space="preserve"><path fill="#000000" d="M28.115,57.83c-0.928,0-1.679-0.752-1.679-1.679c0-0.928,0.752-1.679,1.679-1.679  c0.928,0,1.679,0.752,1.679,1.679C29.795,57.078,29.043,57.83,28.115,57.83z"/><path fill="#000000" d="M46.579,57.729c-0.872,0-1.578-0.707-1.578-1.578c0-0.872,0.707-1.578,1.578-1.578  c0.872,0,1.578,0.707,1.578,1.578C48.157,57.022,47.45,57.729,46.579,57.729z"/><path fill="#000000" d="M73.375,40.932c2.959-1.91,4.303-3.599,4.303-3.599s-1.41-0.064-4.381-0.294  c2.564-1.006,4.322-4.102,4.322-4.102s-1.614,0.277-4.158-0.085c1.608-0.988,3.857-3.804,3.857-3.804s-2.265,0.246-4.084-0.36  c1.986-1.186,3.666-3.295,3.666-3.295s-3.056,0.556-10.906-0.139c-7.389-0.654-8.459-2.103-12.402-2.103  c-3.78,2.734-9.279,5.466-15.531,9.113c-2.347,1.369-8.713,4.684-8.713,4.684c8.721,5.55,34.518,9.855,39.914,9.164  c5.103-0.653,8.133-4.941,8.133-4.941S75.469,41.441,73.375,40.932z"/><path fill="#000000" d="M39.129,54.885h-3.564c-0.384,0-0.722-0.255-0.828-0.624c-0.841-2.943-3.564-4.998-6.622-4.998  c-3.021,0-5.735,2.023-6.6,4.92c-0.07,0.234-0.236,0.427-0.456,0.531c-0.22,0.105-0.474,0.112-0.7,0.017  c-1.681-0.7-4.903-2.057-7.595-3.282c-0.188-0.085-0.338-0.235-0.425-0.422c-0.878-1.897-1.358-3.833-1.432-4.828  c-0.027-0.362,0.176-0.702,0.508-0.85c3.41-1.523,9.833-4.528,15.874-7.529c0.288-0.143,0.632-0.114,0.892,0.077  c6.87,5.03,28.012,8.984,33.788,9.552c0.252,0.025,0.481,0.16,0.625,0.369c0.144,0.209,0.188,0.47,0.122,0.715l-0.177,0.65  c-0.058,0.212-0.194,0.393-0.381,0.508l-7.775,4.757c-0.224,0.137-0.499,0.164-0.745,0.074c-0.247-0.09-0.439-0.288-0.521-0.537  c-0.939-2.825-3.566-4.722-6.537-4.722c-3.058,0-5.781,2.055-6.622,4.998C39.851,54.63,39.513,54.885,39.129,54.885z M36.188,53.163  h2.318c1.24-3.341,4.471-5.623,8.073-5.623c3.354,0,6.357,1.934,7.771,4.908l5.717-3.498c-6.954-0.965-25.276-4.49-32.471-9.359  c-5.595,2.77-11.444,5.514-14.89,7.067c0.147,0.802,0.486,2.039,1.066,3.359c2.209,0.999,4.722,2.067,6.417,2.778  c1.336-3.135,4.47-5.253,7.926-5.253C31.718,47.541,34.948,49.822,36.188,53.163z"/><path fill="#000000" d="M38.521,95.018c-0.46,0-0.947-0.01-1.446-0.029c-9.697-0.377-10.558-3.731-11.317-6.691  c-0.062-0.243-0.125-0.487-0.193-0.728c-0.688-2.448-3.439-11.585-4.476-15.023c-0.522,0.33-1.096,0.505-1.689,0.505  c-1.846,0-3.29-1.654-3.432-3.933c-0.189-3.028-1.822-8.976-3.296-11.145c-1.283-1.887-1.579-4.074-0.737-5.443  c0.227-0.369,0.691-0.512,1.087-0.334c2.953,1.331,6.353,2.749,7.678,3.297c0.317,0.131,0.526,0.437,0.532,0.78  c0.066,3.729,3.154,6.763,6.884,6.763c3.715,0,6.803-3.022,6.884-6.737c0.01-0.468,0.392-0.842,0.861-0.842h2.974  c0.468,0,0.851,0.374,0.861,0.842c0.081,3.715,3.169,6.737,6.884,6.737c3.791,0,6.881-3.085,6.887-6.876  c0.001-0.299,0.156-0.577,0.412-0.733l8.152-4.988c0.361-0.221,0.828-0.147,1.103,0.174c0.73,0.852,1.342,2.449,0.113,5.215  c-1.852,4.168-3.569,10.113-3.756,12.257c-0.179,2.063-1.7,3.679-3.462,3.679l0,0c-0.237,0-0.472-0.03-0.702-0.089  c-0.141,0.435-0.304,0.94-0.484,1.498c-1.579,4.898-4.223,13.097-5.607,15.457c-0.225,0.384-0.417,0.789-0.62,1.218  C47.468,92.273,46.168,95.018,38.521,95.018z M21.515,70.117c0.05,0,0.1,0.004,0.15,0.013c0.32,0.057,0.58,0.288,0.674,0.599  c0.04,0.133,4.03,13.34,4.883,16.374c0.071,0.254,0.137,0.51,0.203,0.766c0.698,2.722,1.301,5.072,9.716,5.398  c0.477,0.019,0.941,0.028,1.38,0.028c6.557,0,7.475-1.938,8.537-4.182c0.21-0.444,0.427-0.903,0.691-1.352  c1.288-2.198,3.998-10.6,5.453-15.115c0.327-1.015,0.598-1.855,0.786-2.42c0.086-0.258,0.29-0.461,0.548-0.546  c0.258-0.085,0.542-0.042,0.765,0.115c0.233,0.165,0.477,0.248,0.725,0.248c0.752,0,1.634-0.805,1.747-2.106  c0.202-2.322,1.948-8.422,3.898-12.807c0.372-0.837,0.705-1.909,0.485-2.749l-6.984,4.273c-0.263,4.512-4.02,8.105-8.595,8.105  c-4.36,0-8.029-3.33-8.545-7.579h-1.372c-0.516,4.249-4.185,7.579-8.545,7.579c-4.47,0-8.204-3.486-8.577-7.883  c-1.394-0.579-3.933-1.646-6.346-2.717c-0.061,0.751,0.195,1.804,0.903,2.846c1.815,2.669,3.405,9.024,3.591,12.006  c0.095,1.522,0.934,2.318,1.714,2.318c0.5,0,1.006-0.308,1.426-0.868C20.99,70.242,21.246,70.117,21.515,70.117z"/><path fill="#000000" d="M32.975,66.151c0.196-0.433,0.705-0.626,1.139-0.43c2.548,1.153,5.214,1.077,6.958-0.198  c0.385-0.281,0.923-0.196,1.203,0.187c0.281,0.384,0.197,0.923-0.187,1.203c-1.218,0.89-2.755,1.339-4.403,1.339  c-1.389,0-2.857-0.319-4.28-0.963C32.972,67.094,32.779,66.584,32.975,66.151z M40.169,83.51c-0.179,0-4.405-0.01-6.809-0.836  c-0.45-0.154-0.689-0.644-0.534-1.094c0.154-0.449,0.644-0.69,1.094-0.534c2.132,0.733,6.208,0.742,6.249,0.742  c0.476,0,0.861,0.386,0.861,0.861C41.03,83.125,40.645,83.51,40.169,83.51z M44.701,82.871c-0.113,0.03-1.119,0.296-1.726,0.349  c-0.026,0.002-0.051,0.003-0.076,0.003c-0.442,0-0.818-0.338-0.856-0.786c-0.041-0.474,0.309-0.891,0.783-0.932  c0.346-0.03,1.061-0.198,1.431-0.297c0.46-0.122,0.932,0.15,1.054,0.609C45.433,82.276,45.16,82.748,44.701,82.871z M50.909,71.261  c-0.167,0.162-0.383,0.243-0.599,0.243c-0.225,0-0.449-0.087-0.618-0.261c-0.033-0.033-0.422-0.438-0.938-1.045  c-4.061,2.563-7.981,3.463-11.473,3.463c-4.188,0-7.759-1.287-10.231-2.528c-0.064,0.109-0.129,0.217-0.195,0.326  c-0.167,0.279-0.341,0.569-0.522,0.894c-0.157,0.283-0.451,0.443-0.753,0.443c-0.142,0-0.285-0.035-0.417-0.109  c-0.416-0.231-0.565-0.755-0.334-1.171c0.19-0.342,0.374-0.649,0.55-0.943c0.487-0.813,0.872-1.455,1.196-2.524  c0.138-0.455,0.619-0.713,1.074-0.574c0.455,0.138,0.712,0.619,0.574,1.074c-0.119,0.393-0.248,0.737-0.382,1.054  c4.163,2.084,11.683,4.292,19.841-0.765c-0.255-0.35-0.507-0.718-0.736-1.094c-0.248-0.406-0.12-0.936,0.286-1.184  c0.406-0.248,0.936-0.12,1.184,0.286c0.988,1.616,2.499,3.182,2.514,3.198C51.258,70.385,51.25,70.93,50.909,71.261z"/><path fill="#000000" d="M46.206,15.044c-5.454,3.626-32.047,17.229-37.979,19.42c-1.626,0.861-1.052,3.731-0.191,6.122  c0.861,2.392,1.579,3.014,2.727,3.588c0,0.066,18.356-8.339,24.844-11.959c6.321-3.526,18.025-10.626,17.851-10.656  c0.67-1.052-1.416-3.358-2.851-5.367C49.171,14.183,46.206,15.044,46.206,15.044z"/><path fill="#000000" d="M21.306,12.428c0.229-0.077,0.459-0.16,0.69-0.246C21.76,12.257,21.53,12.338,21.306,12.428z"/><path fill="#000000" d="M38.55,12.459c-2.404-0.277-5.271,0-11.005-0.647c-2.339-0.264-4.077-0.096-5.549,0.37  c-0.231,0.086-0.461,0.17-0.69,0.246c-4.859,1.632-8.2,4.395-9.96,8.718c-0.281,1.576-0.384,3.673-1.186,4.537  c-1.202,1.295-3.56,4.074-2.358,6.848c5.734-2.118,30.35-14.623,35.621-18.128C43.423,14.403,40.954,12.736,38.55,12.459z"/><g><path fill="#000000" d="M9.573,20.603l0.037-0.091c1.94-4.762,5.597-7.988,11.181-9.864c0.072-0.024,0.148-0.051,0.227-0.079   C19.912,7.33,16.844,5,13.23,5C8.685,5,5,8.685,5,13.23C5,16.461,6.863,19.256,9.573,20.603z"/></g><text x="0" y="115" fill="#000000" font-size="5px" font-weight="bold" font-family="'Helvetica Neue', Helvetica, Arial-Unicode, Arial, Sans-serif"></text><text x="0" y="120" fill="#000000" font-size="5px" font-weight="bold" font-family="'Helvetica Neue', Helvetica, Arial-Unicode, Arial, Sans-serif"></text></svg>